<svg xmlns="http://www.w3.org/2000/svg" viewBox="0 0 64 64">
<defs>
<radialGradient id="jtt-glow" cx="0.3" cy="1.07" r="1.5"><stop offset="0" stop-color="#fdf497"/><stop offset="0.05" stop-color="#fdf497"/><stop offset="0.45" stop-color="#fd5949"/><stop offset="0.6" stop-color="#d6249f"/><stop offset="0.9" stop-color="#285aeb"/></radialGradient>
<radialGradient id="jtt-cap" cx="0.36" cy="0.26" r="0.82"><stop offset="0" stop-color="#ff8fb0"/><stop offset="0.3" stop-color="#ff3d78"/><stop offset="0.68" stop-color="#e0115c"/><stop offset="1" stop-color="#8f0839"/></radialGradient>
<linearGradient id="jtt-rim" x1="0" y1="0" x2="0" y2="1"><stop offset="0" stop-color="#ff9cbc" stop-opacity="0"/><stop offset="0.78" stop-color="#ff9cbc" stop-opacity="0"/><stop offset="1" stop-color="#ffc2d6" stop-opacity="0.85"/></linearGradient>
<radialGradient id="jtt-spot" cx="0.38" cy="0.32" r="0.75"><stop offset="0" stop-color="#ffffff"/><stop offset="0.6" stop-color="#fff4f7"/><stop offset="1" stop-color="#f7c9d8"/></radialGradient>
<radialGradient id="jtt-stem" cx="0.38" cy="0.4" r="0.75"><stop offset="0" stop-color="#fffcf3"/><stop offset="0.55" stop-color="#fbe9c6"/><stop offset="1" stop-color="#dcae6c"/></radialGradient>
<linearGradient id="jtt-under" x1="0" y1="0" x2="0" y2="1"><stop offset="0" stop-color="#7a3b16" stop-opacity="0.55"/><stop offset="1" stop-color="#7a3b16" stop-opacity="0"/></linearGradient>
<radialGradient id="jtt-shine" cx="0.5" cy="0.5" r="0.5"><stop offset="0" stop-color="#ffffff" stop-opacity="0.95"/><stop offset="1" stop-color="#ffffff" stop-opacity="0"/></radialGradient>
<filter id="jtt-soft" x="-30%" y="-30%" width="160%" height="160%"><feGaussianBlur stdDeviation="0.9"/></filter>
<filter id="jtt-blur" x="-30%" y="-80%" width="160%" height="260%"><feGaussianBlur stdDeviation="1.6"/></filter>
<clipPath id="jtt-capclip"><path d="M5 32 C5 15 17 5 32 5 C47 5 59 15 59 32 C59 37 55 39.5 49 38.8 C41 37.9 23 37.9 15 38.8 C9 39.5 5 37 5 32 Z"/></clipPath>
<clipPath id="jtt-stemclip"><path d="M19 37 C17.5 44.5 17.5 51.5 19.5 55.6 C21.5 59.2 42.5 59.2 44.5 55.6 C46.5 51.5 46.5 44.5 45 37 Z"/></clipPath>
</defs>
<rect width="64" height="64" rx="15" fill="url(#jtt-glow)"/>
<ellipse cx="32" cy="58.4" rx="15.5" ry="2.8" fill="#1a0614" opacity="0.38" filter="url(#jtt-blur)"/>
<path d="M19 37 C17.5 44.5 17.5 51.5 19.5 55.6 C21.5 59.2 42.5 59.2 44.5 55.6 C46.5 51.5 46.5 44.5 45 37 Z" fill="url(#jtt-stem)"/>
<g clip-path="url(#jtt-stemclip)">
<rect x="16" y="36" width="34" height="9" fill="url(#jtt-under)"/>
<path d="M21.5 44 C21 49 22 53 24 55.5" fill="none" stroke="#ffffff" stroke-width="1.4" stroke-linecap="round" opacity="0.45"/>
</g>
<ellipse cx="27.5" cy="47" rx="2.5" ry="4.9" fill="#1b1220"/>
<ellipse cx="36.5" cy="47" rx="2.5" ry="4.9" fill="#1b1220"/>
<ellipse cx="26.9" cy="44.9" rx="0.95" ry="1.6" fill="#ffffff"/>
<ellipse cx="35.9" cy="44.9" rx="0.95" ry="1.6" fill="#ffffff"/>
<ellipse cx="22.8" cy="52.2" rx="2.4" ry="1.3" fill="#ff7aa5" opacity="0.75" filter="url(#jtt-soft)"/>
<ellipse cx="41.2" cy="52.2" rx="2.4" ry="1.3" fill="#ff7aa5" opacity="0.75" filter="url(#jtt-soft)"/>
<path d="M30.3 53.4 Q32 54.9 33.7 53.4" fill="none" stroke="#1b1220" stroke-width="1.4" stroke-linecap="round"/>
<path d="M5 32 C5 15 17 5 32 5 C47 5 59 15 59 32 C59 37 55 39.5 49 38.8 C41 37.9 23 37.9 15 38.8 C9 39.5 5 37 5 32 Z" fill="url(#jtt-cap)"/>
<g clip-path="url(#jtt-capclip)">
<ellipse cx="32" cy="16.6" rx="8" ry="7.4" fill="#8e0a3c" opacity="0.35" filter="url(#jtt-soft)"/><ellipse cx="32" cy="15.5" rx="8" ry="7.4" fill="url(#jtt-spot)"/><ellipse cx="29.60" cy="12.69" rx="3.36" ry="1.92" fill="#ffffff" opacity="0.9"/>
<ellipse cx="9.8" cy="28.1" rx="6.4" ry="8.2" fill="#8e0a3c" opacity="0.35" filter="url(#jtt-soft)"/><ellipse cx="9.8" cy="27" rx="6.4" ry="8.2" fill="url(#jtt-spot)"/><ellipse cx="7.88" cy="23.88" rx="2.69" ry="2.13" fill="#ffffff" opacity="0.9"/>
<ellipse cx="54.2" cy="28.1" rx="6.4" ry="8.2" fill="#8e0a3c" opacity="0.35" filter="url(#jtt-soft)"/><ellipse cx="54.2" cy="27" rx="6.4" ry="8.2" fill="url(#jtt-spot)"/><ellipse cx="52.28" cy="23.88" rx="2.69" ry="2.13" fill="#ffffff" opacity="0.9"/>
<ellipse cx="32" cy="32.3" rx="3.6" ry="3.2" fill="#8e0a3c" opacity="0.35" filter="url(#jtt-soft)"/><ellipse cx="32" cy="31.2" rx="3.6" ry="3.2" fill="url(#jtt-spot)"/><ellipse cx="30.92" cy="29.98" rx="1.51" ry="0.83" fill="#ffffff" opacity="0.9"/>
<path d="M5 32 C5 15 17 5 32 5 C47 5 59 15 59 32 C59 37 55 39.5 49 38.8 C41 37.9 23 37.9 15 38.8 C9 39.5 5 37 5 32 Z" fill="url(#jtt-rim)"/>
<ellipse cx="19" cy="13.5" rx="9" ry="4.2" transform="rotate(-28 19 13.5)" fill="url(#jtt-shine)" opacity="0.85"/>
</g>
</svg>
